<svg id="visual" viewBox="0 0 900 450" width="900" height="450" xmlns="http://www.w3.org/2000/svg" xmlns:xlink="http://www.w3.org/1999/xlink" version="1.1"><path d="M0 304L25 303.7C50 303.3 100 302.7 150 308.5C200 314.3 250 326.7 300 325C350 323.3 400 307.7 450 304.8C500 302 550 312 600 315.2C650 318.3 700 314.7 750 316.2C800 317.7 850 324.3 875 327.7L900 331L900 451L875 451C850 451 800 451 750 451C700 451 650 451 600 451C550 451 500 451 450 451C400 451 350 451 300 451C250 451 200 451 150 451C100 451 50 451 25 451L0 451Z" fill="#0d3e56"></path><path d="M0 366L25 362.3C50 358.7 100 351.3 150 342.7C200 334 250 324 300 326.8C350 329.7 400 345.3 450 355.2C500 365 550 369 600 369.7C650 370.3 700 367.7 750 362.5C800 357.3 850 349.7 875 345.8L900 342L900 451L875 451C850 451 800 451 750 451C700 451 650 451 600 451C550 451 500 451 450 451C400 451 350 451 300 451C250 451 200 451 150 451C100 451 50 451 25 451L0 451Z" fill="#1b4d66"></path><path d="M0 362L25 369.7C50 377.3 100 392.7 150 399.3C200 406 250 404 300 396.7C350 389.3 400 376.7 450 369.8C500 363 550 362 600 368.2C650 374.3 700 387.7 750 392.7C800 397.7 850 394.3 875 392.7L900 391L900 451L875 451C850 451 800 451 750 451C700 451 650 451 600 451C550 451 500 451 450 451C400 451 350 451 300 451C250 451 200 451 150 451C100 451 50 451 25 451L0 451Z" fill="#275c76"></path><path d="M0 392L25 394.8C50 397.7 100 403.3 150 404.7C200 406 250 403 300 407.5C350 412 400 424 450 429C500 434 550 432 600 427.2C650 422.3 700 414.7 750 415.8C800 417 850 427 875 432L900 437L900 451L875 451C850 451 800 451 750 451C700 451 650 451 600 451C550 451 500 451 450 451C400 451 350 451 300 451C250 451 200 451 150 451C100 451 50 451 25 451L0 451Z" fill="#336b87"></path></svg>