<svg id="visual" viewBox="0 0 900 450" width="900" height="450" xmlns="http://www.w3.org/2000/svg" xmlns:xlink="http://www.w3.org/1999/xlink" version="1.1"><rect x="0" y="0" width="900" height="450" fill="#0a2735"></rect><path d="M0 296L25 301.3C50 306.7 100 317.3 150 321.7C200 326 250 324 300 318C350 312 400 302 450 302.5C500 303 550 314 600 313.2C650 312.3 700 299.7 750 298C800 296.3 850 305.7 875 310.3L900 315L900 451L875 451C850 451 800 451 750 451C700 451 650 451 600 451C550 451 500 451 450 451C400 451 350 451 300 451C250 451 200 451 150 451C100 451 50 451 25 451L0 451Z" fill="#0a3b52"></path><path d="M0 336L25 333.3C50 330.7 100 325.3 150 326.3C200 327.3 250 334.7 300 344.2C350 353.7 400 365.3 450 364C500 362.7 550 348.3 600 341.8C650 335.3 700 336.7 750 342C800 347.3 850 356.7 875 361.3L900 366L900 451L875 451C850 451 800 451 750 451C700 451 650 451 600 451C550 451 500 451 450 451C400 451 350 451 300 451C250 451 200 451 150 451C100 451 50 451 25 451L0 451Z" fill="#194a63"></path><path d="M0 406L25 400.5C50 395 100 384 150 376.3C200 368.7 250 364.3 300 361.5C350 358.7 400 357.3 450 359.7C500 362 550 368 600 376.3C650 384.7 700 395.3 750 393.8C800 392.3 850 378.7 875 371.8L900 365L900 451L875 451C850 451 800 451 750 451C700 451 650 451 600 451C550 451 500 451 450 451C400 451 350 451 300 451C250 451 200 451 150 451C100 451 50 451 25 451L0 451Z" fill="#265a75"></path><path d="M0 391L25 395.3C50 399.7 100 408.3 150 411.7C200 415 250 413 300 412.5C350 412 400 413 450 411.8C500 410.7 550 407.3 600 410.8C650 414.3 700 424.7 750 428.3C800 432 850 429 875 427.5L900 426L900 451L875 451C850 451 800 451 750 451C700 451 650 451 600 451C550 451 500 451 450 451C400 451 350 451 300 451C250 451 200 451 150 451C100 451 50 451 25 451L0 451Z" fill="#336b87"></path></svg>